# xmcd
#
# Track frame offsets:
#	182
#	9365
#	22640
#	35165
#	54782
#	66322
#	77267
#	89957
#	102827
#	114785
#	122452
#	134672
#	142395
#	155400
#	167577
#	177862
#
# Disc length: 2571
#
# Revision: 1
# Processed by: cddbd v1.5.1PL0 Copyright (c) Steve Scherf et al.
# Submitted via: VisiTrax 2.9.5.180 - For more info visit www.synapsa.com
# Normalized: r0:DSETVAR1
#
DISCID=c90a0910
DTITLE=Various Artist - 15 All-Time Country Greats 08
DYEAR=1988
DGENRE=
TTITLE0=Frankie Laine - Rawhide
TTITLE1=Jim Reeves - Danny Boy
TTITLE2=Hank Williams - I'm So Lonesome I Could Cry
TTITLE3=Marty Robbins - El Paso
TTITLE4=Elvis Presley - I Will Be Home Again
TTITLE5=Hank Locklin - Send Me The Pillow
TTITLE6=Teresa Brewer - Music Music Music
TTITLE7=Faron Young - I'm A Free Man now
TTITLE8=Johnny Cash - You're The Nearest Thing To Heaven
TTITLE9=Gene Autry - Rancho Pillow
TTITLE10=Patsy Cline - Crazy
TTITLE11=Roger Miller - Do-Wack-A-Do
TTITLE12=George Jones - Things Have Gone To Pieces
TTITLE13=Boxcar Willie - Mister Can You Spare A Dime
TTITLE14=Les Paul and Mary Ford - Mockin' Bird Hill
TTITLE15=Carl Perkins - When You're 21
EXTD=
EXTT0=
EXTT1=
EXTT2=
EXTT3=
EXTT4=
EXTT5=
EXTT6=
EXTT7=
EXTT8=
EXTT9=
EXTT10=
EXTT11=
EXTT12=
EXTT13=
EXTT14=
EXTT15=
PLAYORDER=
